HIERARCHY
ROOT hip
{
  OFFSET 342.82 78.4373 -2.36375
  CHANNELS 6 Xposition Yposition Zposition Zrotation Xrotation Yrotation
  JOINT abdomen
  {
    OFFSET 0 20.6881 -0.73152
    CHANNELS 3 Zrotation Xrotation Yrotation
    JOINT chest
    {
      OFFSET 0 11.7043 -0.48768
      CHANNELS 3 Zrotation Xrotation Yrotation
      JOINT neck
      {
        OFFSET 0 22.1894 -2.19456
        CHANNELS 3 Zrotation Xrotation Yrotation
        JOINT head
        {
          OFFSET -0.24384 7.07133 1.2192
          CHANNELS 3 Zrotation Xrotation Yrotation
          JOINT leftEye
          {
            OFFSET 4.14528 8.04674 8.04672
            CHANNELS 3 Zrotation Xrotation Yrotation
            End Site
            {
              OFFSET 1 0 0
            }
          }
          JOINT rightEye
          {
            OFFSET -3.6576 8.04674 8.04672
            CHANNELS 3 Zrotation Xrotation Yrotation
            End Site
            {
              OFFSET 1 0 0
            }
          }
        }
      }
      JOINT rCollar
      {
        OFFSET -2.68224 19.2634 -4.8768
        CHANNELS 3 Zrotation Xrotation Yrotation
        JOINT rShldr
        {
          OFFSET -8.77824 -1.95073 1.46304
          CHANNELS 3 Zrotation Xrotation Yrotation
          JOINT rForeArm
          {
            OFFSET -28.1742 -1.7115 0.48768
            CHANNELS 3 Zrotation Xrotation Yrotation
            JOINT rHand
            {
              OFFSET -22.5879 0.773209 7.07136
              CHANNELS 3 Zrotation Xrotation Yrotation
              JOINT rThumb1
              {
                OFFSET -1.2192 -0.487915 3.41376
                CHANNELS 3 Zrotation Xrotation Yrotation
                JOINT rThumb2
                {
                  OFFSET -3.37035 -0.52449 3.41376
                  CHANNELS 3 Zrotation Xrotation Yrotation
                  End Site
                  {
                    OFFSET -1.78271 -1.18214 1.43049
                  }
                }
              }
              JOINT rIndex1
              {
                OFFSET -7.75947 0.938293 5.60832
                CHANNELS 3 Zrotation Xrotation Yrotation
                JOINT rIndex2
                {
                  OFFSET -2.54057 -0.884171 1.56538
                  CHANNELS 3 Zrotation Xrotation Yrotation
                  End Site
                  {
                    OFFSET -1.62519 -0.234802 1.16502
                  }
                }
              }
              JOINT rMid1
              {
                OFFSET -8.24714 1.18213 3.41376
                CHANNELS 3 Zrotation Xrotation Yrotation
                JOINT rMid2
                {
                  OFFSET -3.10165 -0.590103 1.0647
                  CHANNELS 3 Zrotation Xrotation Yrotation
                  End Site
                  {
                    OFFSET -2.48547 -0.328903 0.83742
                  }
                }
              }
              JOINT rRing1
              {
                OFFSET -8.82822 0.546677 1.51678
                CHANNELS 3 Zrotation Xrotation Yrotation
                JOINT rRing2
                {
                  OFFSET -2.60934 -0.819778 -0.0198488
                  CHANNELS 3 Zrotation Xrotation Yrotation
                  End Site
                  {
                    OFFSET -2.33842 -0.294052 0.168128
                  }
                }
              }
              JOINT rPinky1
              {
                OFFSET -8.27202 -0.0477905 -0.4584
                CHANNELS 3 Zrotation Xrotation Yrotation
                JOINT rPinky2
                {
                  OFFSET -1.82734 -0.647385 -0.700984
                  CHANNELS 3 Zrotation Xrotation Yrotation
                  End Site
                  {
                    OFFSET -1.69225 -0.51767 -0.607171
                  }
                }
              }
            }
          }
        }
      }
      JOINT lCollar
      {
        OFFSET 2.68224 19.2634 -4.8768
        CHANNELS 3 Zrotation Xrotation Yrotation
        JOINT lShldr
        {
          OFFSET 8.77824 -1.95073 1.46304
          CHANNELS 3 Zrotation Xrotation Yrotation
          JOINT lForeArm
          {
            OFFSET 28.1742 -1.7115 0.48768
            CHANNELS 3 Zrotation Xrotation Yrotation
            JOINT lHand
            {
              OFFSET 22.5879 0.773209 7.07136
              CHANNELS 3 Zrotation Xrotation Yrotation
              JOINT lThumb1
              {
                OFFSET 1.2192 -0.487915 3.41376
                CHANNELS 3 Zrotation Xrotation Yrotation
                JOINT lThumb2
                {
                  OFFSET 3.37035 -0.52449 3.41376
                  CHANNELS 3 Zrotation Xrotation Yrotation
                  End Site
                  {
                    OFFSET 1.78271 -1.18214 1.43049
                  }
                }
              }
              JOINT lIndex1
              {
                OFFSET 7.75947 0.938293 5.60832
                CHANNELS 3 Zrotation Xrotation Yrotation
                JOINT lIndex2
                {
                  OFFSET 2.54057 -0.884171 1.56538
                  CHANNELS 3 Zrotation Xrotation Yrotation
                  End Site
                  {
                    OFFSET 1.62519 -0.234802 1.16502
                  }
                }
              }
              JOINT lMid1
              {
                OFFSET 8.24714 1.18213 3.41376
                CHANNELS 3 Zrotation Xrotation Yrotation
                JOINT lMid2
                {
                  OFFSET 3.10165 -0.590103 1.0647
                  CHANNELS 3 Zrotation Xrotation Yrotation
                  End Site
                  {
                    OFFSET 2.48547 -0.328903 0.83742
                  }
                }
              }
              JOINT lRing1
              {
                OFFSET 8.82822 0.546677 1.51678
                CHANNELS 3 Zrotation Xrotation Yrotation
                JOINT lRing2
                {
                  OFFSET 2.60934 -0.819778 -0.0198488
                  CHANNELS 3 Zrotation Xrotation Yrotation
                  End Site
                  {
                    OFFSET 2.33842 -0.294052 0.168128
                  }
                }
              }
              JOINT lPinky1
              {
                OFFSET 8.27202 -0.0477905 -0.4584
                CHANNELS 3 Zrotation Xrotation Yrotation
                JOINT lPinky2
                {
                  OFFSET 1.82734 -0.647385 -0.700984
                  CHANNELS 3 Zrotation Xrotation Yrotation
                  End Site
                  {
                    OFFSET 1.69225 -0.51767 -0.607171
                  }
                }
              }
            }
          }
        }
      }
    }
  }
  JOINT rButtock
  {
    OFFSET -8.77824 4.35084 1.2192
    CHANNELS 3 Zrotation Xrotation Yrotation
    JOINT rThigh
    {
      OFFSET 0 -1.70687 -2.19456
      CHANNELS 3 Zrotation Xrotation Yrotation
      JOINT rShin
      {
        OFFSET 0 -36.8199 0.73152
        CHANNELS 3 Zrotation Xrotation Yrotation
        JOINT rFoot
        {
          OFFSET 0.73152 -45.1104 -5.12064
          CHANNELS 3 Zrotation Xrotation Yrotation
          End Site
          {
            OFFSET -1.1221 -3.69964 12.103
          }
        }
      }
    }
  }
  JOINT lButtock
  {
    OFFSET 8.77824 4.35084 1.2192
    CHANNELS 3 Zrotation Xrotation Yrotation
    JOINT lThigh
    {
      OFFSET 0 -1.70687 -2.19456
      CHANNELS 3 Zrotation Xrotation Yrotation
      JOINT lShin
      {
        OFFSET 0 -36.8199 0.73152
        CHANNELS 3 Zrotation Xrotation Yrotation
        JOINT lFoot
        {
          OFFSET -0.73152 -45.1104 -5.12064
          CHANNELS 3 Zrotation Xrotation Yrotation
          End Site
          {
            OFFSET 1.1221 -3.69964 12.103
          }
        }
      }
    }
  }
}
MOTION
Frames:	7
Frame Time:	0.00833333
81.279 86.6625 0.548807 -7.1798 -6.80072 91.1553 4.61615 9.82218 7.89112 -5.03488 -0.277319 2.27222 5.23058 4.38511 1.25927 -5.44852 -37.004 0.239006 -0 0 0 -0 0 0 2.32302e-013 2.14259e-012 5.43893e-014 82.3365 57.2008 -11.9 -24.1809 -48.7936 102.631 -1.25523 -29.8507 -4.63503 -4.61373e-011 -1.66404e-009 -1.89063e-009 -3.57777e-011 -2.88484e-009 -3.27087e-009 -4.61291e-011 -1.66404e-009 -1.89064e-009 7.73091 5.47488 0.417314 -4.61385e-011 -1.66403e-009 -1.89062e-009 2.90554 0.965183 0.102902 -4.61357e-011 -1.66404e-009 -1.89063e-009 10.2786 0.731801 0.0259123 -4.61448e-011 -1.66404e-009 -1.89062e-009 2.22167 -0.733487 -0.20892 2.32347e-013 2.14258e-012 5.40694e-014 -102.483 11.9866 53.6738 26.8034 -44.4736 -92.4578 0.166036 -11.9797 1.70594 -2.47784e-010 -4.05524e-010 -3.31381e-010 -4.25936e-010 -7.00682e-010 -5.75534e-010 -2.47785e-010 -4.05524e-010 -3.31372e-010 -7.73091 5.47488 -0.417314 -2.47782e-010 -4.05524e-010 -3.31378e-010 -2.90554 0.965183 -0.102902 -2.47789e-010 -4.05523e-010 -3.31379e-010 -10.2786 0.731801 -0.0259123 -2.4778e-010 -4.05523e-010 -3.31382e-010 -2.22167 -0.733487 0.20892 -2.03217e-016 0 -3.88251e-019 13.9692 9.36009 -1.80089 -0.541522 50.7013 1.27863 -4.70367 -1.41069 -27.0734 2.03217e-016 0 3.88251e-019 -1.87491 -40.9262 -15.5784 0.283148 31.3113 -0.171488 2.86234 -14.6768 7.83849 
86.7019 85.2648 0.667744 -6.55628 -5.73416 90.801 2.7662 10.5146 7.97353 -4.75571 -0.499495 2.21396 5.21889 4.69608 1.32252 -4.99241 -36.9999 0.530545 -0 0 0 -0 0 0 1.17993e-013 9.57261e-013 7.41677e-015 85.6445 58.0157 -14.7941 -24.4417 -48.4554 101.773 -1.2023 -29.2578 -4.52512 -3.88607e-010 -2.36673e-009 -2.41296e-009 -6.17666e-010 -4.10639e-009 -4.17984e-009 -3.88596e-010 -2.36673e-009 -2.41296e-009 7.73091 5.47488 0.417314 -3.88609e-010 -2.36672e-009 -2.41294e-009 2.90554 0.965183 0.102902 -3.88608e-010 -2.36674e-009 -2.41296e-009 10.2786 0.731801 0.0259123 -3.88617e-010 -2.36673e-009 -2.41295e-009 2.22167 -0.733487 -0.20892 1.18126e-013 9.57257e-013 7.07083e-015 -101.592 12.6337 50.6666 26.8192 -44.4615 -92.396 0.243318 -14.1713 2.03149 -1.76767e-010 2.33887e-010 1.65195e-010 -3.09444e-010 4.05811e-010 2.85757e-010 -1.76767e-010 2.33888e-010 1.65203e-010 -7.73091 5.47488 -0.417314 -1.76765e-010 2.33889e-010 1.65201e-010 -2.90554 0.965183 -0.102902 -1.76773e-010 2.3389e-010 1.65199e-010 -10.2786 0.731801 -0.0259123 -1.76764e-010 2.33891e-010 1.65199e-010 -2.22167 -0.733487 0.20892 -2.03217e-016 0 -3.88251e-019 11.4236 5.68496 -2.81774 -0.962946 59.8298 1.71869 -5.2975 -2.72972 -25.0909 2.03217e-016 0 3.88251e-019 -2.73019 -40.0105 -13.6836 0.336077 34.0943 -0.0160111 1.83019 -11.85 5.57126 
92.1353 83.7614 0.700952 -6.09039 -4.896 89.4437 0.620907 11.1623 7.93399 -4.41862 -0.79435 2.11572 5.15902 5.07147 1.36494 -4.46428 -37.2472 0.825674 -0 0 0 -0 0 0 4.60357e-014 1.67576e-013 -2.68359e-014 89.2486 58.0054 -18.0447 -25.103 -47.8317 99.5775 -1.04718 -27.7416 -4.23892 -5.69122e-010 -2.63002e-009 -2.69784e-009 -9.25338e-010 -4.56544e-009 -4.67556e-009 -5.69108e-010 -2.63002e-009 -2.69784e-009 7.73091 5.47488 0.417314 -5.69124e-010 -2.63001e-009 -2.69781e-009 2.90554 0.965183 0.102902 -5.69124e-010 -2.63002e-009 -2.69784e-009 10.2786 0.731801 0.0259123 -5.69132e-010 -2.63002e-009 -2.69783e-009 2.22167 -0.733487 -0.20892 4.62035e-014 1.67576e-013 -2.71838e-014 -100.736 13.9759 47.1902 26.854 -44.3957 -92.2343 0.309216 -15.6275 2.25302 -7.70203e-011 5.48002e-010 5.21678e-010 -1.41126e-010 9.49688e-010 9.03748e-010 -7.70191e-011 5.48002e-010 5.21684e-010 -7.73091 5.47488 -0.417314 -7.70174e-011 5.48005e-010 5.21684e-010 -2.90554 0.965183 -0.102902 -7.70256e-011 5.48006e-010 5.21682e-010 -10.2786 0.731801 -0.0259123 -7.70167e-011 5.48007e-010 5.21684e-010 -2.22167 -0.733487 0.20892 -2.03217e-016 0 -3.88251e-019 8.58401 1.38688 -3.67918 -1.69114 68.0011 2.4394 -5.5464 -3.56688 -23.3225 2.03217e-016 0 3.88251e-019 -4.11794 -38.7239 -12.3423 0.375573 36.8127 0.0757547 1.26933 -10.5888 3.9522 
97.3078 82.514 0.618221 -5.76117 -3.23361 87.1055 -2.21133 11.8416 7.80856 -3.99598 -1.24414 1.97332 4.9914 5.58667 1.35264 -3.66511 -37.9813 1.14766 -0 0 0 -0 0 0 4.05666e-014 -6.98434e-014 -4.776e-014 92.9946 56.7492 -21.4166 -26.229 -46.5205 95.5267 -0.736341 -24.332 -3.62487 -4.53141e-010 -2.17619e-009 -2.57232e-009 -7.30627e-010 -3.78024e-009 -4.45682e-009 -4.53124e-010 -2.17619e-009 -2.57233e-009 7.73091 5.47488 0.417314 -4.53142e-010 -2.17618e-009 -2.5723e-009 2.90554 0.965183 0.102902 -4.53141e-010 -2.17619e-009 -2.57232e-009 10.2786 0.731801 0.0259123 -4.53148e-010 -2.17619e-009 -2.57231e-009 2.22167 -0.733487 -0.20892 4.06816e-014 -6.9842e-014 -4.80733e-014 -99.6204 16.4178 43.0276 26.9476 -44.153 -91.7504 0.336545 -16.1592 2.33514 1.17523e-010 3.42541e-010 6.07673e-010 1.94655e-010 5.95369e-010 1.05259e-009 1.17524e-010 3.42541e-010 6.07678e-010 -7.73091 5.47488 -0.417314 1.17526e-010 3.42545e-010 6.07679e-010 -2.90554 0.965183 -0.102902 1.17518e-010 3.42545e-010 6.07677e-010 -10.2786 0.731801 -0.0259123 1.17527e-010 3.42546e-010 6.07679e-010 -2.22167 -0.733487 0.20892 -2.03217e-016 0 -3.88251e-019 5.07363 -3.85513 -4.43871 -3.13469 75.44 3.83203 -5.32824 -3.53413 -21.6814 2.03217e-016 0 3.88251e-019 -6.46415 -37.2052 -11.7924 0.429968 39.8072 0.073255 1.07028 -11.7865 3.07587 
102.333 81.1149 -0.0107706 -5.36877 0.149122 86.1597 -5.64674 12.5771 7.60581 -3.48235 -1.81729 1.79086 4.76139 6.23094 1.31995 -2.70259 -39.0756 1.51869 -0 0 0 -0 0 0 6.95619e-014 -4.40934e-014 -6.42478e-014 96.5749 54.6039 -24.6687 -27.3516 -44.3105 90.5152 -0.423968 -19.5636 -2.83808 -1.47235e-010 -1.23243e-009 -2.15116e-009 -2.15096e-010 -2.1452e-009 -3.72381e-009 -1.47217e-010 -1.23243e-009 -2.15118e-009 7.73091 5.47488 0.417314 -1.47236e-010 -1.23242e-009 -2.15115e-009 2.90554 0.965183 0.102902 -1.47233e-010 -1.23243e-009 -2.15116e-009 10.2786 0.731801 0.0259123 -1.47238e-010 -1.23243e-009 -2.15115e-009 2.22167 -0.733487 -0.20892 6.95671e-014 -4.40921e-014 -6.45056e-014 -97.9694 19.9688 38.2123 27.0888 -43.7437 -90.9728 0.341502 -16.2432 2.34829 3.92295e-010 -1.79725e-010 5.60334e-010 6.71034e-010 -3.06541e-010 9.70115e-010 3.92296e-010 -1.79726e-010 5.60338e-010 -7.73091 5.47488 -0.417314 3.92298e-010 -1.79722e-010 5.6034e-010 -2.90554 0.965183 -0.102902 3.92291e-010 -1.79722e-010 5.60337e-010 -10.2786 0.731801 -0.0259123 3.92302e-010 -1.79721e-010 5.60337e-010 -2.22167 -0.733487 0.20892 -2.03217e-016 0 -3.88251e-019 0.878582 -10.024 -5.11914 -7.35376 82.6585 7.97074 -4.79666 -2.88379 -19.8456 2.03217e-016 0 3.88251e-019 -9.53728 -35.5002 -11.6074 0.509757 43.3912 -0.00295467 1.0044 -14.5512 2.56453 
107.567 80.4018 -0.323513 -5.09817 2.8296 87.9167 -8.85099 13.1803 7.23414 -2.9488 -2.35255 1.5747 4.56992 6.84276 1.31747 -1.92204 -40.0949 1.88379 -0 0 0 -0 0 0 1.02735e-013 1.09258e-013 -7.09999e-014 99.6763 52.2474 -27.7691 -27.9841 -41.668 86.0452 -0.25545 -15.2082 -2.17723 1.25806e-010 -2.53202e-010 -1.73741e-009 2.44049e-010 -4.48404e-010 -3.00412e-009 1.25824e-010 -2.53212e-010 -1.73744e-009 7.73091 5.47488 0.417314 1.25806e-010 -2.532e-010 -1.73741e-009 2.90554 0.965183 0.102902 1.25811e-010 -2.53203e-010 -1.73741e-009 10.2786 0.731801 0.0259123 1.25807e-010 -2.53202e-010 -1.7374e-009 2.22167 -0.733487 -0.20892 1.02624e-013 1.09259e-013 -7.11975e-014 -95.8874 24.1014 33.1816 27.1891 -43.432 -90.3911 0.326931 -15.9496 2.30303 6.09576e-010 -7.33747e-010 5.7018e-010 1.04798e-009 -1.26394e-009 9.86113e-010 6.09575e-010 -7.33749e-010 5.70183e-010 -7.73091 5.47488 -0.417314 6.09579e-010 -7.33745e-010 5.70185e-010 -2.90554 0.965183 -0.102902 6.09573e-010 -7.33746e-010 5.70182e-010 -10.2786 0.731801 -0.0259123 6.09583e-010 -7.33744e-010 5.70179e-010 -2.22167 -0.733487 0.20892 -2.03217e-016 0 -3.88251e-019 -3.11614 -16.4022 -5.69257 -42.8981 88.457 43.4371 -4.30385 -2.21406 -18.2365 2.03217e-016 0 3.88251e-019 -12.4513 -33.3296 -11.5303 0.596297 46.5636 -0.131167 1.03436 -17.6148 2.37457 
112.634 79.8984 -0.297959 -5.01064 3.4201 90.12 -10.9924 13.4614 6.60153 -2.46385 -2.68854 1.3311 4.51585 7.26057 1.39589 -1.68772 -40.6052 2.17521 -0 0 0 -0 0 0 1.098e-013 2.54642e-013 -6.27166e-014 102.222 50.329 -30.849 -28.1684 -39.41 82.871 -0.213455 -13.0476 -1.86642 1.43193e-010 3.07019e-010 -1.63415e-009 2.69604e-010 5.22056e-010 -2.82538e-009 1.43212e-010 3.07008e-010 -1.63418e-009 7.73091 5.47488 0.417314 1.43194e-010 3.07018e-010 -1.63415e-009 2.90554 0.965183 0.102902 1.432e-010 3.07019e-010 -1.63415e-009 10.2786 0.731801 0.0259123 1.43197e-010 3.07019e-010 -1.63414e-009 2.22167 -0.733487 -0.20892 1.09615e-013 2.54643e-013 -6.28657e-014 -93.7369 28.1423 28.3421 27.1851 -43.4995 -90.4583 0.297935 -15.3486 2.21078 6.31642e-010 -1.03447e-009 8.2773e-010 1.08545e-009 -1.78472e-009 1.43036e-009 6.3164e-010 -1.03448e-009 8.27733e-010 -7.73091 5.47488 -0.417314 6.31645e-010 -1.03447e-009 8.27733e-010 -2.90554 0.965183 -0.102902 6.31639e-010 -1.03447e-009 8.27731e-010 -10.2786 0.731801 -0.0259123 6.31651e-010 -1.03447e-009 8.27727e-010 -2.22167 -0.733487 0.20892 -2.03217e-016 0 -3.88251e-019 -5.96671 -22.2792 -6.08852 -159.61 86.7983 160.109 -4.117 -2.15574 -17.2635 2.03217e-016 0 3.88251e-019 -14.3599 -30.4088 -11.3379 0.650356 48.3234 -0.275823 1.15811 -19.7074 2.46273 
